# xmcd CD database file
#
# Track frame offsets:
#	150
#	18820
#	35898
#	51448
#	72470
#	93358
#	118708
#	140568
#	157190
#	186798
#
# Disc length: 2755 seconds
#
# Revision: 0
# Processed by: cddbd v1.5.1PL0 Copyright (c) Steve Scherf et al.
# Submitted via: CDex 1.51
#
DISCID=920ac10a
DTITLE=大野雄二 - YOU&EXPLOSION BAND-MADE IN Y.O.-2
DYEAR=2005
DGENRE=Jazz
TTITLE0=シークレット・デザイアー
TTITLE1=大追跡のテーマ
TTITLE2=夢の舟乗り
TTITLE3=クリスタル・ラブ
TTITLE4=人間の証明のテーマ
TTITLE5=炎のたからもの
TTITLE6=小さな旅
TTITLE7=水もれ甲介
TTITLE8=Ｊｉｇｇｙ Ｂｅａｎｓ
TTITLE9=ＬＯＶＥ ＳＡＶＥＳ ＴＨＥ ＥＡＲＴＨ
EXTD=YEAR: 2005
EXTT0=
EXTT1=
EXTT2=
EXTT3=
EXTT4=
EXTT5=
EXTT6=
EXTT7=
EXTT8=
EXTT9=
PLAYORDER=
